<svg width="1538" height="814" xmlns="http://www.w3.org/2000/svg"><g><path d="M-49,-87L-107,327L-32,91Z" fill="#e6573b" stroke="#e6573b" fill-opacity="1" stroke-opacity="1"/><path d="M-49,-87L-32,91L67,47Z" fill="#eb3b2d" stroke="#eb3b2d" fill-opacity="1" stroke-opacity="1"/><path d="M-49,-87L67,47L57,-91Z" fill="#ed2825" stroke="#ed2825" fill-opacity="1" stroke-opacity="1"/><path d="M57,-91L67,47L189,31Z" fill="#f44632" stroke="#f44632" fill-opacity="1" stroke-opacity="1"/><path d="M57,-91L189,31L234,-86Z" fill="#f93e2f" stroke="#f93e2f" fill-opacity="1" stroke-opacity="1"/><path d="M57,-91L234,-86L645,-108Z" fill="#fd5233" stroke="#fd5233" fill-opacity="1" stroke-opacity="1"/><path d="M57,-91L645,-108L981,-124Z" fill="#ff7552" stroke="#ff7552" fill-opacity="1" stroke-opacity="1"/><path d="M234,-86L189,31L379,84Z" fill="#fc6a43" stroke="#fc6a43" fill-opacity="1" stroke-opacity="1"/><path d="M234,-86L379,84L434,-41Z" fill="#fe6f46" stroke="#fe6f46" fill-opacity="1" stroke-opacity="1"/><path d="M234,-86L434,-41L492,-78Z" fill="#fe5f41" stroke="#fe5f41" fill-opacity="1" stroke-opacity="1"/><path d="M234,-86L492,-78L645,-108Z" fill="#ff6847" stroke="#ff6847" fill-opacity="1" stroke-opacity="1"/><path d="M434,-41L379,84L485,49Z" fill="#ff8e5a" stroke="#ff8e5a" fill-opacity="1" stroke-opacity="1"/><path d="M434,-41L485,49L492,-78Z" fill="#ff7d55" stroke="#ff7d55" fill-opacity="1" stroke-opacity="1"/><path d="M492,-78L485,49L645,-108Z" fill="#ff7d5b" stroke="#ff7d5b" fill-opacity="1" stroke-opacity="1"/><path d="M645,-108L485,49L644,91Z" fill="#ff986c" stroke="#ff986c" fill-opacity="1" stroke-opacity="1"/><path d="M645,-108L644,91L792,-50Z" fill="#fe9374" stroke="#fe9374" fill-opacity="1" stroke-opacity="1"/><path d="M645,-108L792,-50L981,-124Z" fill="#f47b7a" stroke="#f47b7a" fill-opacity="1" stroke-opacity="1"/><path d="M792,-50L644,91L825,72Z" fill="#f9a989" stroke="#f9a989" fill-opacity="1" stroke-opacity="1"/><path d="M792,-50L825,72L981,-124Z" fill="#ee888c" stroke="#ee888c" fill-opacity="1" stroke-opacity="1"/><path d="M981,-124L825,72L1033,76Z" fill="#e29291" stroke="#e29291" fill-opacity="1" stroke-opacity="1"/><path d="M981,-124L1033,76L1066,-82Z" fill="#d57884" stroke="#d57884" fill-opacity="1" stroke-opacity="1"/><path d="M981,-124L1066,-82L1414,-49Z" fill="#c15c73" stroke="#c15c73" fill-opacity="1" stroke-opacity="1"/><path d="M981,-124L1414,-49L1528,-69Z" fill="#aa4467" stroke="#aa4467" fill-opacity="1" stroke-opacity="1"/><path d="M1066,-82L1033,76L1160,99Z" fill="#cb8e8d" stroke="#cb8e8d" fill-opacity="1" stroke-opacity="1"/><path d="M1066,-82L1160,99L1326,-23Z" fill="#bc7480" stroke="#bc7480" fill-opacity="1" stroke-opacity="1"/><path d="M1066,-82L1326,-23L1414,-49Z" fill="#b05370" stroke="#b05370" fill-opacity="1" stroke-opacity="1"/><path d="M1326,-23L1160,99L1216,129Z" fill="#b5898a" stroke="#b5898a" fill-opacity="1" stroke-opacity="1"/><path d="M1326,-23L1216,129L1459,131Z" fill="#a77d83" stroke="#a77d83" fill-opacity="1" stroke-opacity="1"/><path d="M1326,-23L1459,131L1414,-49Z" fill="#9e5a72" stroke="#9e5a72" fill-opacity="1" stroke-opacity="1"/><path d="M1414,-49L1459,131L1552,86Z" fill="#935c73" stroke="#935c73" fill-opacity="1" stroke-opacity="1"/><path d="M1414,-49L1552,86L1528,-69Z" fill="#903d64" stroke="#903d64" fill-opacity="1" stroke-opacity="1"/><path d="M1528,-69L1552,86L1697,-41Z" fill="#832f5d" stroke="#832f5d" fill-opacity="1" stroke-opacity="1"/><path d="M1697,-41L1552,86L1711,73Z" fill="#803860" stroke="#803860" fill-opacity="1" stroke-opacity="1"/><path d="M1697,-41L1711,73L1784,235Z" fill="#804163" stroke="#804163" fill-opacity="1" stroke-opacity="1"/><path d="M-32,91L-107,327L-41,259Z" fill="#e68156" stroke="#e68156" fill-opacity="1" stroke-opacity="1"/><path d="M-32,91L-41,259L33,165Z" fill="#ea794a" stroke="#ea794a" fill-opacity="1" stroke-opacity="1"/><path d="M-32,91L33,165L67,47Z" fill="#ed6240" stroke="#ed6240" fill-opacity="1" stroke-opacity="1"/><path d="M67,47L33,165L189,31Z" fill="#f36642" stroke="#f36642" fill-opacity="1" stroke-opacity="1"/><path d="M189,31L33,165L267,240Z" fill="#f98e54" stroke="#f98e54" fill-opacity="1" stroke-opacity="1"/><path d="M189,31L267,240L360,172Z" fill="#fca35e" stroke="#fca35e" fill-opacity="1" stroke-opacity="1"/><path d="M189,31L360,172L379,84Z" fill="#fd9457" stroke="#fd9457" fill-opacity="1" stroke-opacity="1"/><path d="M379,84L360,172L485,49Z" fill="#fea764" stroke="#fea764" fill-opacity="1" stroke-opacity="1"/><path d="M485,49L360,172L577,237Z" fill="#ffc677" stroke="#ffc677" fill-opacity="1" stroke-opacity="1"/><path d="M485,49L577,237L644,91Z" fill="#ffc57f" stroke="#ffc57f" fill-opacity="1" stroke-opacity="1"/><path d="M644,91L577,237L672,239Z" fill="#ffe495" stroke="#ffe495" fill-opacity="1" stroke-opacity="1"/><path d="M644,91L672,239L825,72Z" fill="#fdd295" stroke="#fdd295" fill-opacity="1" stroke-opacity="1"/><path d="M825,72L672,239L879,262Z" fill="#f5e6ae" stroke="#f5e6ae" fill-opacity="1" stroke-opacity="1"/><path d="M825,72L879,262L933,196Z" fill="#ecddb4" stroke="#ecddb4" fill-opacity="1" stroke-opacity="1"/><path d="M825,72L933,196L1033,76Z" fill="#e4bfa5" stroke="#e4bfa5" fill-opacity="1" stroke-opacity="1"/><path d="M1033,76L933,196L1138,199Z" fill="#d4c9a9" stroke="#d4c9a9" fill-opacity="1" stroke-opacity="1"/><path d="M1033,76L1138,199L1160,99Z" fill="#c8b19d" stroke="#c8b19d" fill-opacity="1" stroke-opacity="1"/><path d="M1160,99L1138,199L1216,129Z" fill="#beb19c" stroke="#beb19c" fill-opacity="1" stroke-opacity="1"/><path d="M1216,129L1138,199L1248,231Z" fill="#b9bfa3" stroke="#b9bfa3" fill-opacity="1" stroke-opacity="1"/><path d="M1216,129L1248,231L1449,167Z" fill="#abab98" stroke="#abab98" fill-opacity="1" stroke-opacity="1"/><path d="M1216,129L1449,167L1459,131Z" fill="#a1918c" stroke="#a1918c" fill-opacity="1" stroke-opacity="1"/><path d="M1459,131L1449,167L1552,86Z" fill="#927880" stroke="#927880" fill-opacity="1" stroke-opacity="1"/><path d="M1552,86L1449,167L1612,282Z" fill="#8b8585" stroke="#8b8585" fill-opacity="1" stroke-opacity="1"/><path d="M1552,86L1612,282L1711,73Z" fill="#806977" stroke="#806977" fill-opacity="1" stroke-opacity="1"/><path d="M1711,73L1612,282L1784,235Z" fill="#806f7c" stroke="#806f7c" fill-opacity="1" stroke-opacity="1"/><path d="M-41,259L-107,327L133,398Z" fill="#eb977b" stroke="#eb977b" fill-opacity="1" stroke-opacity="1"/><path d="M-41,259L133,398L33,165Z" fill="#ef9f6e" stroke="#ef9f6e" fill-opacity="1" stroke-opacity="1"/><path d="M33,165L133,398L267,240Z" fill="#f7b175" stroke="#f7b175" fill-opacity="1" stroke-opacity="1"/><path d="M267,240L133,398L230,401Z" fill="#fbbe92" stroke="#fbbe92" fill-opacity="1" stroke-opacity="1"/><path d="M267,240L230,401L428,435Z" fill="#fdd09f" stroke="#fdd09f" fill-opacity="1" stroke-opacity="1"/><path d="M267,240L428,435L360,172Z" fill="#fed88c" stroke="#fed88c" fill-opacity="1" stroke-opacity="1"/><path d="M360,172L428,435L577,237Z" fill="#ffe799" stroke="#ffe799" fill-opacity="1" stroke-opacity="1"/><path d="M577,237L428,435L543,408Z" fill="#fff0ba" stroke="#fff0ba" fill-opacity="1" stroke-opacity="1"/><path d="M577,237L543,408L706,374Z" fill="#fff8c0" stroke="#fff8c0" fill-opacity="1" stroke-opacity="1"/><path d="M577,237L706,374L672,239Z" fill="#fffcb5" stroke="#fffcb5" fill-opacity="1" stroke-opacity="1"/><path d="M672,239L706,374L879,262Z" fill="#f9fdc8" stroke="#f9fdc8" fill-opacity="1" stroke-opacity="1"/><path d="M879,262L706,374L864,377Z" fill="#f3fbe0" stroke="#f3fbe0" fill-opacity="1" stroke-opacity="1"/><path d="M879,262L864,377L1011,388Z" fill="#e6f4e5" stroke="#e6f4e5" fill-opacity="1" stroke-opacity="1"/><path d="M879,262L1011,388L933,196Z" fill="#e2f3d2" stroke="#e2f3d2" fill-opacity="1" stroke-opacity="1"/><path d="M933,196L1011,388L1116,345Z" fill="#d6edd7" stroke="#d6edd7" fill-opacity="1" stroke-opacity="1"/><path d="M933,196L1116,345L1138,199Z" fill="#cfe1c0" stroke="#cfe1c0" fill-opacity="1" stroke-opacity="1"/><path d="M1138,199L1116,345L1248,231Z" fill="#bed6bd" stroke="#bed6bd" fill-opacity="1" stroke-opacity="1"/><path d="M1248,231L1116,345L1299,414Z" fill="#b6d2cf" stroke="#b6d2cf" fill-opacity="1" stroke-opacity="1"/><path d="M1248,231L1299,414L1443,420Z" fill="#a7c0cd" stroke="#a7c0cd" fill-opacity="1" stroke-opacity="1"/><path d="M1248,231L1443,420L1449,167Z" fill="#a0b8b0" stroke="#a0b8b0" fill-opacity="1" stroke-opacity="1"/><path d="M1449,167L1443,420L1612,282Z" fill="#90a4aa" stroke="#90a4aa" fill-opacity="1" stroke-opacity="1"/><path d="M1612,282L1443,420L1626,433Z" fill="#889bbe" stroke="#889bbe" fill-opacity="1" stroke-opacity="1"/><path d="M1612,282L1626,433L1716,331Z" fill="#808cb0" stroke="#808cb0" fill-opacity="1" stroke-opacity="1"/><path d="M1612,282L1716,331L1784,235Z" fill="#808397" stroke="#808397" fill-opacity="1" stroke-opacity="1"/><path d="M1784,235L1716,331L1706,557Z" fill="#8080af" stroke="#8080af" fill-opacity="1" stroke-opacity="1"/><path d="M1784,235L1706,557L1704,707Z" fill="#7280bb" stroke="#7280bb" fill-opacity="1" stroke-opacity="1"/><path d="M1784,235L1704,707L1736,944Z" fill="#4768b7" stroke="#4768b7" fill-opacity="1" stroke-opacity="1"/><path d="M-107,327L-118,574L133,398Z" fill="#e9928e" stroke="#e9928e" fill-opacity="1" stroke-opacity="1"/><path d="M133,398L-118,574L132,576Z" fill="#dda097" stroke="#dda097" fill-opacity="1" stroke-opacity="1"/><path d="M133,398L132,576L223,506Z" fill="#eeb5a1" stroke="#eeb5a1" fill-opacity="1" stroke-opacity="1"/><path d="M133,398L223,506L230,401Z" fill="#fabba1" stroke="#fabba1" fill-opacity="1" stroke-opacity="1"/><path d="M230,401L223,506L357,540Z" fill="#f4c9aa" stroke="#f4c9aa" fill-opacity="1" stroke-opacity="1"/><path d="M230,401L357,540L428,435Z" fill="#fcd6b0" stroke="#fcd6b0" fill-opacity="1" stroke-opacity="1"/><path d="M428,435L357,540L544,473Z" fill="#f6e6be" stroke="#f6e6be" fill-opacity="1" stroke-opacity="1"/><path d="M428,435L544,473L543,408Z" fill="#ffefc5" stroke="#ffefc5" fill-opacity="1" stroke-opacity="1"/><path d="M543,408L544,473L706,374Z" fill="#fff7ce" stroke="#fff7ce" fill-opacity="1" stroke-opacity="1"/><path d="M706,374L544,473L695,522Z" fill="#fefcda" stroke="#fefcda" fill-opacity="1" stroke-opacity="1"/><path d="M706,374L695,522L795,507Z" fill="#f6fee7" stroke="#f6fee7" fill-opacity="1" stroke-opacity="1"/><path d="M706,374L795,507L864,377Z" fill="#f6fcec" stroke="#f6fcec" fill-opacity="1" stroke-opacity="1"/><path d="M864,377L795,507L952,573Z" fill="#e4f8fb" stroke="#e4f8fb" fill-opacity="1" stroke-opacity="1"/><path d="M864,377L952,573L1011,388Z" fill="#e2f3f7" stroke="#e2f3f7" fill-opacity="1" stroke-opacity="1"/><path d="M1011,388L952,573L1175,517Z" fill="#c6eaf3" stroke="#c6eaf3" fill-opacity="1" stroke-opacity="1"/><path d="M1011,388L1175,517L1116,345Z" fill="#c9e3e9" stroke="#c9e3e9" fill-opacity="1" stroke-opacity="1"/><path d="M1116,345L1175,517L1299,414Z" fill="#bad6e4" stroke="#bad6e4" fill-opacity="1" stroke-opacity="1"/><path d="M1299,414L1175,517L1277,581Z" fill="#a4cde4" stroke="#a4cde4" fill-opacity="1" stroke-opacity="1"/><path d="M1299,414L1277,581L1445,575Z" fill="#92bfdc" stroke="#92bfdc" fill-opacity="1" stroke-opacity="1"/><path d="M1299,414L1445,575L1443,420Z" fill="#99b6d7" stroke="#99b6d7" fill-opacity="1" stroke-opacity="1"/><path d="M1443,420L1445,575L1616,494Z" fill="#83a4ce" stroke="#83a4ce" fill-opacity="1" stroke-opacity="1"/><path d="M1443,420L1616,494L1626,433Z" fill="#879ac9" stroke="#879ac9" fill-opacity="1" stroke-opacity="1"/><path d="M1626,433L1616,494L1706,557Z" fill="#748cc2" stroke="#748cc2" fill-opacity="1" stroke-opacity="1"/><path d="M1626,433L1706,557L1716,331Z" fill="#8087bd" stroke="#8087bd" fill-opacity="1" stroke-opacity="1"/><path d="M-118,574L-94,1026L-99,692Z" fill="#7f3c6f" stroke="#7f3c6f" fill-opacity="1" stroke-opacity="1"/><path d="M-118,574L-99,692L113,649Z" fill="#ac778c" stroke="#ac778c" fill-opacity="1" stroke-opacity="1"/><path d="M-118,574L113,649L132,576Z" fill="#c09095" stroke="#c09095" fill-opacity="1" stroke-opacity="1"/><path d="M132,576L113,649L185,654Z" fill="#bf9b9c" stroke="#bf9b9c" fill-opacity="1" stroke-opacity="1"/><path d="M132,576L185,654L223,506Z" fill="#d3aea1" stroke="#d3aea1" fill-opacity="1" stroke-opacity="1"/><path d="M223,506L185,654L357,540Z" fill="#d9c0a8" stroke="#d9c0a8" fill-opacity="1" stroke-opacity="1"/><path d="M357,540L185,654L367,720Z" fill="#c1b5a9" stroke="#c1b5a9" fill-opacity="1" stroke-opacity="1"/><path d="M357,540L367,720L518,721Z" fill="#bbbfb2" stroke="#bbbfb2" fill-opacity="1" stroke-opacity="1"/><path d="M357,540L518,721L544,473Z" fill="#d8e0c1" stroke="#d8e0c1" fill-opacity="1" stroke-opacity="1"/><path d="M544,473L518,721L697,662Z" fill="#cae2cf" stroke="#cae2cf" fill-opacity="1" stroke-opacity="1"/><path d="M544,473L697,662L695,522Z" fill="#e2f9d9" stroke="#e2f9d9" fill-opacity="1" stroke-opacity="1"/><path d="M695,522L697,662L822,652Z" fill="#c7eae6" stroke="#c7eae6" fill-opacity="1" stroke-opacity="1"/><path d="M695,522L822,652L795,507Z" fill="#d7f7ed" stroke="#d7f7ed" fill-opacity="1" stroke-opacity="1"/><path d="M795,507L822,652L952,573Z" fill="#c9f0fb" stroke="#c9f0fb" fill-opacity="1" stroke-opacity="1"/><path d="M952,573L822,652L1019,633Z" fill="#aedef6" stroke="#aedef6" fill-opacity="1" stroke-opacity="1"/><path d="M952,573L1019,633L1175,517Z" fill="#ace1f2" stroke="#ace1f2" fill-opacity="1" stroke-opacity="1"/><path d="M1175,517L1019,633L1163,694Z" fill="#92cdeb" stroke="#92cdeb" fill-opacity="1" stroke-opacity="1"/><path d="M1175,517L1163,694L1277,581Z" fill="#8bc6e6" stroke="#8bc6e6" fill-opacity="1" stroke-opacity="1"/><path d="M1277,581L1163,694L1242,702Z" fill="#73afde" stroke="#73afde" fill-opacity="1" stroke-opacity="1"/><path d="M1277,581L1242,702L1434,617Z" fill="#6faadb" stroke="#6faadb" fill-opacity="1" stroke-opacity="1"/><path d="M1277,581L1434,617L1445,575Z" fill="#75aad7" stroke="#75aad7" fill-opacity="1" stroke-opacity="1"/><path d="M1445,575L1434,617L1542,695Z" fill="#5b91ce" stroke="#5b91ce" fill-opacity="1" stroke-opacity="1"/><path d="M1445,575L1542,695L1616,494Z" fill="#6192ca" stroke="#6192ca" fill-opacity="1" stroke-opacity="1"/><path d="M1616,494L1542,695L1706,557Z" fill="#5886c3" stroke="#5886c3" fill-opacity="1" stroke-opacity="1"/><path d="M1706,557L1542,695L1704,707Z" fill="#3f6cbb" stroke="#3f6cbb" fill-opacity="1" stroke-opacity="1"/><path d="M-99,692L-94,1026L-50,795Z" fill="#6a2563" stroke="#6a2563" fill-opacity="1" stroke-opacity="1"/><path d="M-99,692L-50,795L113,649Z" fill="#976080" stroke="#976080" fill-opacity="1" stroke-opacity="1"/><path d="M113,649L-50,795L16,866Z" fill="#885179" stroke="#885179" fill-opacity="1" stroke-opacity="1"/><path d="M113,649L16,866L282,785Z" fill="#936682" stroke="#936682" fill-opacity="1" stroke-opacity="1"/><path d="M113,649L282,785L185,654Z" fill="#ac8b94" stroke="#ac8b94" fill-opacity="1" stroke-opacity="1"/><path d="M185,654L282,785L367,720Z" fill="#a79297" stroke="#a79297" fill-opacity="1" stroke-opacity="1"/><path d="M367,720L282,785L404,786Z" fill="#9b8f96" stroke="#9b8f96" fill-opacity="1" stroke-opacity="1"/><path d="M367,720L404,786L518,721Z" fill="#a2a3a5" stroke="#a2a3a5" fill-opacity="1" stroke-opacity="1"/><path d="M518,721L404,786L566,795Z" fill="#9ba3a9" stroke="#9ba3a9" fill-opacity="1" stroke-opacity="1"/><path d="M518,721L566,795L697,662Z" fill="#a7bcbe" stroke="#a7bcbe" fill-opacity="1" stroke-opacity="1"/><path d="M697,662L566,795L709,843Z" fill="#9bb3c0" stroke="#9bb3c0" fill-opacity="1" stroke-opacity="1"/><path d="M697,662L709,843L811,791Z" fill="#97b4cc" stroke="#97b4cc" fill-opacity="1" stroke-opacity="1"/><path d="M697,662L811,791L822,652Z" fill="#a7cadf" stroke="#a7cadf" fill-opacity="1" stroke-opacity="1"/><path d="M822,652L811,791L962,853Z" fill="#8bafdf" stroke="#8bafdf" fill-opacity="1" stroke-opacity="1"/><path d="M822,652L962,853L1019,633Z" fill="#90bde6" stroke="#90bde6" fill-opacity="1" stroke-opacity="1"/><path d="M1019,633L962,853L1082,850Z" fill="#6e9ed6" stroke="#6e9ed6" fill-opacity="1" stroke-opacity="1"/><path d="M1019,633L1082,850L1163,694Z" fill="#74a9db" stroke="#74a9db" fill-opacity="1" stroke-opacity="1"/><path d="M1163,694L1082,850L1242,702Z" fill="#6197d2" stroke="#6197d2" fill-opacity="1" stroke-opacity="1"/><path d="M1242,702L1082,850L1313,806Z" fill="#4e83c7" stroke="#4e83c7" fill-opacity="1" stroke-opacity="1"/><path d="M1242,702L1313,806L1434,617Z" fill="#558ccc" stroke="#558ccc" fill-opacity="1" stroke-opacity="1"/><path d="M1434,617L1313,806L1450,797Z" fill="#4275c0" stroke="#4275c0" fill-opacity="1" stroke-opacity="1"/><path d="M1434,617L1450,797L1542,695Z" fill="#4376c1" stroke="#4376c1" fill-opacity="1" stroke-opacity="1"/><path d="M1542,695L1450,797L1538,874Z" fill="#2451ae" stroke="#2451ae" fill-opacity="1" stroke-opacity="1"/><path d="M1542,695L1538,874L1683,839Z" fill="#153fa4" stroke="#153fa4" fill-opacity="1" stroke-opacity="1"/><path d="M1542,695L1683,839L1704,707Z" fill="#224baa" stroke="#224baa" fill-opacity="1" stroke-opacity="1"/><path d="M1704,707L1683,839L1736,944Z" fill="#082195" stroke="#082195" fill-opacity="1" stroke-opacity="1"/><path d="M-50,795L-94,1026L16,866Z" fill="#68175b" stroke="#68175b" fill-opacity="1" stroke-opacity="1"/><path d="M16,866L-94,1026L112,992Z" fill="#6d1a54" stroke="#6d1a54" fill-opacity="1" stroke-opacity="1"/><path d="M16,866L112,992L283,920Z" fill="#773164" stroke="#773164" fill-opacity="1" stroke-opacity="1"/><path d="M16,866L283,920L282,785Z" fill="#7b4f76" stroke="#7b4f76" fill-opacity="1" stroke-opacity="1"/><path d="M282,785L283,920L404,786Z" fill="#867287" stroke="#867287" fill-opacity="1" stroke-opacity="1"/><path d="M404,786L283,920L417,1009Z" fill="#7f5e7e" stroke="#7f5e7e" fill-opacity="1" stroke-opacity="1"/><path d="M404,786L417,1009L556,935Z" fill="#7f6989" stroke="#7f6989" fill-opacity="1" stroke-opacity="1"/><path d="M404,786L556,935L566,795Z" fill="#858b9e" stroke="#858b9e" fill-opacity="1" stroke-opacity="1"/><path d="M566,795L556,935L709,843Z" fill="#808da8" stroke="#808da8" fill-opacity="1" stroke-opacity="1"/><path d="M709,843L556,935L711,1032Z" fill="#807da0" stroke="#807da0" fill-opacity="1" stroke-opacity="1"/><path d="M709,843L711,1032L867,926Z" fill="#797db1" stroke="#797db1" fill-opacity="1" stroke-opacity="1"/><path d="M709,843L867,926L811,791Z" fill="#7791c5" stroke="#7791c5" fill-opacity="1" stroke-opacity="1"/><path d="M811,791L867,926L962,853Z" fill="#6c8cce" stroke="#6c8cce" fill-opacity="1" stroke-opacity="1"/><path d="M962,853L867,926L918,919Z" fill="#677ac4" stroke="#677ac4" fill-opacity="1" stroke-opacity="1"/><path d="M962,853L918,919L1082,850Z" fill="#5c7ec5" stroke="#5c7ec5" fill-opacity="1" stroke-opacity="1"/><path d="M1082,850L918,919L1157,1016Z" fill="#5169b8" stroke="#5169b8" fill-opacity="1" stroke-opacity="1"/><path d="M1082,850L1157,1016L1262,991Z" fill="#3f5bab" stroke="#3f5bab" fill-opacity="1" stroke-opacity="1"/><path d="M1082,850L1262,991L1313,806Z" fill="#375eb4" stroke="#375eb4" fill-opacity="1" stroke-opacity="1"/><path d="M1313,806L1262,991L1436,1015Z" fill="#2740a0" stroke="#2740a0" fill-opacity="1" stroke-opacity="1"/><path d="M1313,806L1436,1015L1450,797Z" fill="#1e44a7" stroke="#1e44a7" fill-opacity="1" stroke-opacity="1"/><path d="M1450,797L1436,1015L1538,874Z" fill="#142f9c" stroke="#142f9c" fill-opacity="1" stroke-opacity="1"/><path d="M1538,874L1436,1015L1583,980Z" fill="#0e228d" stroke="#0e228d" fill-opacity="1" stroke-opacity="1"/><path d="M1538,874L1583,980L1683,839Z" fill="#031991" stroke="#031991" fill-opacity="1" stroke-opacity="1"/><path d="M1683,839L1583,980L1736,944Z" fill="#000a87" stroke="#000a87" fill-opacity="1" stroke-opacity="1"/><path d="M-94,1026L711,1032L417,1009Z" fill="#7f5865" stroke="#7f5865" fill-opacity="1" stroke-opacity="1"/><path d="M-94,1026L417,1009L112,992Z" fill="#783256" stroke="#783256" fill-opacity="1" stroke-opacity="1"/><path d="M112,992L417,1009L283,920Z" fill="#7d4a67" stroke="#7d4a67" fill-opacity="1" stroke-opacity="1"/><path d="M417,1009L711,1032L556,935Z" fill="#7f7588" stroke="#7f7588" fill-opacity="1" stroke-opacity="1"/><path d="M711,1032L1436,1015L1157,1016Z" fill="#4a63a3" stroke="#4a63a3" fill-opacity="1" stroke-opacity="1"/><path d="M711,1032L1157,1016L918,919Z" fill="#6574b2" stroke="#6574b2" fill-opacity="1" stroke-opacity="1"/><path d="M711,1032L918,919L867,926Z" fill="#727bb8" stroke="#727bb8" fill-opacity="1" stroke-opacity="1"/><path d="M1157,1016L1436,1015L1262,991Z" fill="#2e4897" stroke="#2e4897" fill-opacity="1" stroke-opacity="1"/><path d="M1436,1015L1736,944L1583,980Z" fill="#051783" stroke="#051783" fill-opacity="1" stroke-opacity="1"/></g></svg>